<?xml version="1.0" standalone="no"?><!DOCTYPE svg PUBLIC "-//W3C//DTD SVG 1.1//EN" "http://www.w3.org/Graphics/SVG/1.1/DTD/svg11.dtd"><svg t="1572491753198" class="icon" viewBox="0 0 1024 1024" version="1.1" xmlns="http://www.w3.org/2000/svg" p-id="1590" xmlns:xlink="http://www.w3.org/1999/xlink" width="200" height="200"><defs><style type="text/css"></style></defs><path d="M1006.933333 721.066667c0 28.16-23.04 51.2-51.2 51.2L68.266667 771.413333c-28.16 0-51.2-23.04-51.2-51.2V192c0-28.16 23.04-51.2 51.2-51.2l887.466666 0.853333c28.16 0 51.2 23.04 51.2 51.2v528.213334z" fill="#FFFFFF" p-id="1591"></path><path d="M527.36 701.44c32.426667-60.586667 110.933333-102.4 202.24-102.4 90.453333 0 168.106667 40.96 201.386667 100.693333l-403.626667 1.706667z" fill="#B3D3EF" p-id="1592"></path><path d="M791.04 604.16s-20.48 43.52-61.44 43.52-61.44-43.52-61.44-43.52v-40.106667h122.88v40.106667z" fill="#ECF1F2" p-id="1593"></path><path d="M884.053333 381.44c-7.68-2.56-16.213333 0.853333-23.893333 8.533333-10.24-87.04-64.853333-153.6-129.706667-153.6s-119.466667 66.56-129.706666 153.6c-7.68-7.68-16.213333-11.093333-23.893334-8.533333-13.653333 4.266667-18.773333 27.306667-11.093333 50.346667 7.68 22.186667 23.893333 37.546667 37.546667 34.986666 14.506667 78.506667 66.56 119.466667 127.146666 119.466667 61.44 0 112.64-40.106667 127.146667-119.466667 13.653333 2.56 29.866667-11.946667 37.546667-34.986666 6.826667-23.893333 2.56-46.08-11.093334-50.346667z" fill="#FFFFFF" p-id="1594"></path><path d="M798.72 221.013333c-69.973333-68.266667-282.453333-1.706667-200.533333 198.826667 23.893333-71.68 19.626667-88.746667 43.52-86.186667 24.746667 2.56 67.413333 36.693333 107.52 5.973334 31.573333-23.893333 52.906667-46.933333 79.36-9.386667 23.04 32.426667 29.013333 50.346667 32.426666 89.6 38.4-34.133333 44.373333-183.466667-62.293333-198.826667z" fill="#3B3C5A" p-id="1595"></path><path d="M87.893333 772.266667c1.706667-116.053333 95.573333-209.92 212.48-209.92 116.053333 0 210.773333 93.866667 212.48 209.92h51.2c-1.706667-144.213333-118.613333-261.12-263.68-261.12-144.213333 0-261.973333 116.906667-263.68 261.12h51.2z" fill="#C7CAC7" p-id="1596"></path><path d="M299.52 774.826667m-212.48 0a212.48 212.48 0 1 0 424.96 0 212.48 212.48 0 1 0-424.96 0Z" fill="#B3D3EF" p-id="1597"></path><path d="M400.213333 750.933333L299.52 650.24 198.826667 750.933333l38.4 37.546667 35.84-35.84v133.973333h53.76V752.64l35.84 35.84z" fill="#FFFFFF" p-id="1598"></path><path d="M180.906667 273.92h-54.613334c-5.12 0-8.533333 3.413333-8.533333 8.533333s3.413333 8.533333 8.533333 8.533334h54.613334c5.12 0 8.533333-3.413333 8.533333-8.533334s-4.266667-8.533333-8.533333-8.533333zM425.813333 273.92H265.386667c-5.12 0-8.533333 3.413333-8.533334 8.533333s3.413333 8.533333 8.533334 8.533334h160.426666c5.12 0 8.533333-3.413333 8.533334-8.533334s-4.266667-8.533333-8.533334-8.533333zM180.906667 361.813333h-54.613334c-5.12 0-8.533333 3.413333-8.533333 8.533334s3.413333 8.533333 8.533333 8.533333h54.613334c5.12 0 8.533333-3.413333 8.533333-8.533333s-4.266667-8.533333-8.533333-8.533334zM425.813333 361.813333H265.386667c-5.12 0-8.533333 3.413333-8.533334 8.533334s3.413333 8.533333 8.533334 8.533333h160.426666c5.12 0 8.533333-3.413333 8.533334-8.533333s-4.266667-8.533333-8.533334-8.533334zM527.36 709.973333l403.626667-2.56c3.413333 0 5.973333-1.706667 7.68-4.266666 1.706667-2.56 1.706667-5.973333 0-8.533334-26.453333-46.933333-77.653333-81.066667-138.24-96.426666v-23.893334c31.573333-19.626667 54.613333-54.613333 64.853333-98.986666 15.36-2.56 30.72-17.92 38.4-40.96 4.266667-12.8 5.12-25.6 2.56-36.693334-2.56-10.24-6.826667-17.92-13.653333-22.186666 5.12-26.453333 4.266667-58.026667-3.413334-84.48-13.653333-43.52-43.52-70.826667-85.333333-77.653334-39.253333-35.84-114.346667-34.986667-168.96 1.706667-25.6 17.92-77.653333 64.853333-58.88 157.866667h-1.706667c-9.386667 3.413333-16.213333 11.946667-18.773333 24.746666-2.56 11.093333-1.706667 23.893333 2.56 36.693334 7.68 22.186667 23.04 38.4 38.4 40.96 10.24 45.226667 33.28 79.36 64.853333 98.986666v23.893334c-64 15.36-115.2 51.2-141.653333 98.986666-1.706667 2.56-1.706667 5.973333 0 8.533334 1.706667 2.56 5.12 4.266667 7.68 4.266666z m116.053333-481.28c48.64-32.426667 116.906667-33.28 149.333334-1.706666 1.706667 0.853333 2.56 1.706667 5.12 2.56 46.08 6.826667 65.706667 40.106667 74.24 66.56 7.68 25.6 7.68 53.76 3.413333 75.946666-1.706667 7.68-3.413333 15.36-5.973333 21.333334 0 0.853333-0.853333 1.706667-0.853334 1.706666v-0.853333c-4.266667-25.6-12.8-43.52-30.72-69.12-1.706667-3.413333-4.266667-5.973333-5.973333-7.68-7.68-8.533333-15.36-13.653333-24.746667-14.506667H802.133333c-15.36 0-29.866667 11.093333-46.08 23.893334-3.413333 2.56-5.973333 5.12-9.386666 7.68-24.746667 18.773333-51.2 8.533333-74.24 0-10.24-3.413333-18.773333-6.826667-27.306667-7.68-7.68-0.853333-13.653333 0-17.92 2.56-10.24 5.973333-14.506667 19.626667-20.48 42.666666-1.706667 6.826667-4.266667 13.653333-6.826667 22.186667-1.706667-5.973333-3.413333-12.8-5.12-18.773333-15.36-63.146667 1.706667-115.2 48.64-146.773334z m-32.426666 236.373334c0-2.56-1.706667-4.266667-3.413334-5.12-1.706667-0.853333-3.413333-1.706667-5.12-1.706667h-1.706666c-7.68 1.706667-21.333333-10.24-27.306667-29.013333-3.413333-10.24-4.266667-20.48-2.56-28.16 1.706667-5.973333 4.266667-10.24 7.68-11.946667 2.56 11.093333 6.826667 22.186667 11.946667 34.133333 1.706667 3.413333 4.266667 5.973333 8.533333 5.12 3.413333 0 6.826667-2.56 7.68-5.973333 6.826667-19.626667 11.093333-34.986667 14.506667-46.933333 10.24-34.133333 11.093333-34.133333 20.48-33.28 5.973333 0.853333 14.506667 3.413333 23.04 6.826666 24.746667 9.386667 58.026667 22.186667 90.453333-2.56 3.413333-2.56 6.826667-5.12 9.386667-7.68 15.36-11.946667 28.16-21.333333 38.4-20.48 5.973333 0.853333 12.8 5.973333 19.626666 16.213334 22.186667 31.573333 28.16 47.786667 30.72 85.333333 0 3.413333 2.56 5.973333 5.12 7.68 0.853333 0 1.706667 0.853333 3.413334 0.853333s4.266667-0.853333 5.973333-2.56c7.68-7.68 14.506667-18.773333 18.773333-31.573333 0.853333 1.706667 1.706667 4.266667 2.56 6.826667 1.706667 7.68 0.853333 17.92-2.56 28.16-5.973333 19.626667-19.626667 30.72-27.306666 29.013333-2.56-0.853333-4.266667 0-6.826667 0.853333-1.706667 0.853333-3.413333 3.413333-3.413333 5.12-7.68 41.813333-26.453333 73.386667-53.76 92.16-10.24 6.826667-22.186667 12.8-34.133334 16.213334-9.386667 2.56-19.626667 4.266667-30.72 4.266666-11.093333 0-21.333333-1.706667-30.72-4.266666-12.8-3.413333-23.893333-8.533333-34.133333-16.213334-28.16-17.92-46.933333-49.493333-54.613333-91.306666z m171.52 118.613333v18.773333c-0.853333 1.706667-2.56 5.12-5.12 8.533334-8.533333 11.093333-23.893333 28.16-46.933334 28.16s-39.253333-17.066667-46.933333-29.013334c-2.56-3.413333-4.266667-6.826667-5.12-8.533333v-18.773333c16.213333 6.826667 33.28 11.093333 52.906667 11.093333 17.92 0 34.986667-3.413333 51.2-10.24zM664.746667 614.4c7.68 13.653333 29.866667 41.813333 65.706666 41.813333s57.173333-29.013333 65.706667-41.813333c51.2 12.8 94.72 39.253333 120.32 75.093333l-372.906667 2.56c24.746667-36.693333 68.266667-64.853333 121.173334-77.653333z" p-id="1599"></path><path d="M733.013333 525.653333c15.36 0 29.866667-5.12 40.96-15.36 3.413333-3.413333 4.266667-8.533333 0.853334-11.946666-3.413333-3.413333-8.533333-4.266667-11.946667-0.853334-16.213333 14.506667-42.666667 14.506667-59.733333 0-3.413333-3.413333-8.533333-2.56-11.946667 0.853334-3.413333 3.413333-2.56 8.533333 0.853333 11.946666 11.093333 10.24 25.6 15.36 40.96 15.36zM299.52 553.813333c-122.026667 0-221.013333 98.986667-221.013333 221.013334s98.986667 221.013333 221.013333 221.013333S520.533333 896 520.533333 774.826667 421.546667 553.813333 299.52 553.813333z m0 424.106667c-112.64 0-203.946667-91.306667-203.946667-203.946667S187.733333 570.88 299.52 570.88 503.466667 662.186667 503.466667 774.826667s-91.306667 203.093333-203.946667 203.093333zM180.906667 448.853333h-54.613334c-5.12 0-8.533333 3.413333-8.533333 8.533334s3.413333 8.533333 8.533333 8.533333h54.613334c5.12 0 8.533333-3.413333 8.533333-8.533333s-4.266667-8.533333-8.533333-8.533334zM425.813333 448.853333H265.386667c-5.12 0-8.533333 3.413333-8.533334 8.533334s3.413333 8.533333 8.533334 8.533333h160.426666c5.12 0 8.533333-3.413333 8.533334-8.533333s-4.266667-8.533333-8.533334-8.533334z" p-id="1600"></path><path d="M305.493333 644.266667c-1.706667-1.706667-3.413333-2.56-5.973333-2.56s-4.266667 0.853333-5.973333 2.56L192.853333 744.96c-3.413333 3.413333-3.413333 8.533333 0 11.946667l37.546667 37.546666c3.413333 3.413333 8.533333 3.413333 11.946667 0l21.333333-21.333333v113.493333c0 5.12 3.413333 8.533333 8.533333 8.533334h53.76c5.12 0 8.533333-3.413333 8.533334-8.533334V773.12l21.333333 21.333333c3.413333 3.413333 8.533333 3.413333 11.946667 0l37.546666-37.546666c1.706667-1.706667 2.56-3.413333 2.56-5.973334s-0.853333-4.266667-2.56-5.973333L305.493333 644.266667zM362.666667 776.533333L332.8 746.666667c-2.56-2.56-5.973333-3.413333-9.386667-1.706667-3.413333 1.706667-5.12 4.266667-5.12 7.68v125.44H281.6V752.64c0-3.413333-1.706667-6.826667-5.12-7.68-3.413333-1.706667-6.826667-0.853333-9.386667 1.706667L237.226667 776.533333l-25.6-25.6 88.746666-88.746666L388.266667 750.933333l-25.6 25.6z" p-id="1601"></path><path d="M1015.466667 192.853333c0-33.28-26.453333-59.733333-59.733334-59.733333L68.266667 132.266667c-16.213333 0-30.72 5.973333-41.813334 17.92-11.946667 11.093333-17.92 25.6-17.92 41.813333v528.213333c0 33.28 26.453333 59.733333 59.733334 59.733334h11.093333v-5.973334-11.093333H68.266667c-23.893333 0-42.666667-18.773333-42.666667-42.666667V192c0-11.093333 4.266667-22.186667 12.8-29.866667 7.68-8.533333 18.773333-12.8 29.866667-12.8l887.466666 0.853334c23.893333 0 42.666667 18.773333 42.666667 42.666666v528.213334c0 11.093333-4.266667 22.186667-12.8 29.866666-7.68 7.68-18.773333 12.8-29.866667 12.8H520.533333v17.066667h435.2c16.213333 0 30.72-5.973333 41.813334-17.92 11.093333-11.093333 17.92-26.453333 17.92-41.813333V192.853333z" p-id="1602"></path></svg>